<svg xmlns="http://www.w3.org/2000/svg" width="64" height="64" viewBox="0 0 64 64" fill="none">
  <defs>
    <linearGradient id="g" x1="8" y1="6" x2="58" y2="62" gradientUnits="userSpaceOnUse">
      <stop stop-color="#F0C24B" />
      <stop offset="1" stop-color="#D44A5E" />
    </linearGradient>
  </defs>
  <rect x="6" y="6" width="52" height="52" rx="16" fill="url(#g)" />
  <path
    d="M18 42V22h6.8c4.9 0 8 2.5 8 6.6 0 4.5-3.4 7.1-8.6 7.1H24v6.3h-6zM24 31.4h1c1.8 0 2.9-0.9 2.9-2.4 0-1.5-1.1-2.3-2.9-2.3H24v4.7z"
    fill="#0a0f1d"
    opacity="0.92"
  />
  <path d="M37 42V22h6v8.1h7.9V22h6v20h-6v-7.4H43V42h-6z" fill="#0a0f1d" opacity="0.92" />
</svg>

