<svg xmlns="http://www.w3.org/2000/svg" width="1200" height="800" viewBox="0 0 1200 800" fill="none">
  <defs>
    <linearGradient id="g" x1="0" y1="0" x2="1200" y2="800" gradientUnits="userSpaceOnUse">
      <stop stop-color="#F0C24B" stop-opacity="0.20" />
      <stop offset="1" stop-color="#27AE60" stop-opacity="0.12" />
    </linearGradient>
  </defs>
  <rect width="1200" height="800" fill="url(#g)" />
  <g fill="rgba(255,255,255,0.10)" stroke="rgba(255,255,255,0.18)" stroke-width="2">
    <path d="M600 230 c70 0 120 55 120 125 0 105-120 205-120 205S480 460 480 355c0-70 50-125 120-125z" />
    <path d="M520 560 h160 v120 a22 22 0 0 1-22 22 h-116 a22 22 0 0 1-22-22z" />
    <path d="M460 320 h-110 c0 90 40 160 140 170" />
    <path d="M740 320 h110 c0 90-40 160-140 170" />
  </g>
  <text x="70" y="110" font-family="Segoe UI, Arial, sans-serif" font-size="54" fill="rgba(255,255,255,0.90)">Achievements</text>
</svg>

